<svg width="50" height="51" viewBox="0 0 50 51" fill="none" xmlns="http://www.w3.org/2000/svg">
<path d="M25 29C28.309 29 31 26.5332 31 23.5C31 20.4667 28.309 18 25 18C21.691 18 19 20.4667 19 23.5C19 26.5332 21.691 29 25 29ZM25 20.75C26.6545 20.75 28 21.9834 28 23.5C28 25.0166 26.6545 26.25 25 26.25C23.3455 26.25 22 25.0166 22 23.5C22 21.9834 23.3455 20.75 25 20.75Z" fill="#02E4C0"/>
<path d="M24.2025 39.7398C24.4352 39.909 24.714 40 25 40C25.286 40 25.5648 39.909 25.7975 39.7398C26.2155 39.4388 36.0398 32.2162 35.9999 23.2001C35.9999 17.0246 31.0651 12 25 12C18.9349 12 14.0001 17.0246 14.0001 23.1931C13.9602 32.2162 23.7845 39.4388 24.2025 39.7398ZM25 14.8C29.5498 14.8 33.2499 18.5675 33.2499 23.2071C33.2788 29.4203 27.2165 34.9994 25 36.8292C22.7849 34.998 16.7212 29.4175 16.7501 23.2001C16.7501 18.5675 20.4502 14.8 25 14.8Z" fill="#02E4C0"/>
</svg>
