<svg width="61" height="65" viewBox="0 0 61 65" fill="none" xmlns="http://www.w3.org/2000/svg">
<path d="M56.2752 53.0679C55.8228 56.4298 53.5604 59.3388 50.393 60.6316C48.8415 61.2773 47.161 61.4719 45.4801 61.2773C43.8643 61.0837 42.248 60.5665 40.5676 59.5978C38.2402 58.3036 35.9131 56.3006 33.1984 53.3269C37.4649 48.0909 40.0498 43.3073 41.0199 39.0417C41.4725 37.0376 41.5369 35.2275 41.3434 33.5466C41.0851 31.9308 40.5031 30.4434 39.5977 29.1509C37.5938 26.2423 34.2329 24.5613 30.4836 24.5613C26.7343 24.5613 23.3731 26.307 21.3692 29.1509C20.4638 30.4437 19.8828 31.9308 19.6238 33.5466C19.3655 35.2275 19.43 37.102 19.9473 39.042C20.9166 43.3071 23.5667 48.1556 27.7688 53.3906C25.1185 56.3651 22.7267 58.3687 20.3994 59.6618C18.7189 60.6316 17.1027 61.1489 15.4869 61.342C13.8212 61.5281 12.1352 61.3065 10.5741 60.6963C7.40656 59.4035 5.14461 56.4935 4.6918 53.1323C4.4982 51.5168 4.62735 49.901 5.27375 48.0909C5.46735 47.4441 5.79102 46.7988 6.11375 46.0226C6.56656 44.9887 7.08383 43.8891 7.60039 42.7898L7.66555 42.6614C12.1252 33.0293 16.9091 23.2041 21.8865 13.6376L22.0803 13.249C22.5976 12.2803 23.1141 11.2465 23.6319 10.2764C24.1487 9.24187 24.7304 8.27203 25.4412 7.43109C26.7987 5.87953 28.6088 5.0393 30.6127 5.0393C32.6166 5.0393 34.4265 5.87953 35.784 7.43133C36.4951 8.27203 37.0768 9.24187 37.5941 10.2766C38.1113 11.2465 38.6279 12.2803 39.1452 13.249L39.3397 13.6376C44.252 23.2685 49.0358 33.0937 53.4959 42.7259V42.7898C54.0132 43.8244 54.4653 44.9887 54.9826 46.0226C55.306 46.7988 55.629 47.4438 55.8226 48.0909C56.3398 49.7714 56.5337 51.3881 56.2754 53.0679H56.2752ZM30.4836 50.0294C26.9933 45.6344 24.7304 41.497 23.9548 38.0074C23.6321 36.5203 23.5667 35.2275 23.7613 34.0638C23.8902 33.0293 24.2785 32.1239 24.7948 31.3477C26.0232 29.6039 28.0916 28.503 30.4836 28.503C32.8754 28.503 35.0084 29.5383 36.1719 31.3477C36.6887 32.1239 37.0768 33.0293 37.2059 34.0638C37.3998 35.2275 37.3351 36.5848 37.0121 38.0074C36.2366 41.433 33.9739 45.57 30.4836 50.0294ZM59.6366 46.6685C59.3136 45.8927 58.9902 45.0527 58.6672 44.3416C58.1499 43.1787 57.6327 42.079 57.1801 41.0444L57.1154 40.9805C52.6557 31.2837 47.8719 21.4584 42.8298 11.7637L42.6362 11.3747C42.1189 10.4051 41.6016 9.37055 41.0851 8.33648C40.4382 7.17234 39.7916 5.94539 38.7577 4.78102C36.6884 2.19539 33.7156 0.773438 30.5478 0.773438C27.3158 0.773438 24.4072 2.19539 22.2737 4.65234C21.3045 5.81555 20.5934 7.04367 19.947 8.20805C19.4298 9.24187 18.9125 10.2764 18.3955 11.2465L18.2016 11.6332C13.2247 21.3293 8.37641 31.1552 3.91602 40.8513L3.85156 40.9805C3.39875 42.0143 2.88149 43.1128 2.36422 44.2772C2.01841 45.0433 1.69522 45.8194 1.39508 46.6045C0.554376 48.9956 0.296095 51.2585 0.619064 53.5852C1.33063 58.4334 4.56266 62.5064 9.02281 64.3158C10.703 65.0273 12.4484 65.3503 14.2588 65.3503C14.7758 65.3503 15.4222 65.2856 15.9395 65.2205C18.0723 64.9615 20.27 64.2518 22.4028 63.023C25.0536 61.5363 27.5748 59.4035 30.4187 56.3006C33.2626 59.4035 35.8484 61.5366 38.4341 63.023C40.5676 64.2518 42.7651 64.9615 44.8981 65.2205C45.4154 65.2856 46.0618 65.3503 46.5788 65.3503C48.3889 65.3503 50.1985 65.0273 51.8148 64.3158C56.3396 62.5064 59.507 58.369 60.218 53.5852C60.7353 51.3223 60.4763 49.061 59.6363 46.6683L59.6366 46.6685Z" fill="#E0565B"/>
</svg>
